<svg height="472pt" viewBox="-49 0 472 472.06561" width="472pt" xmlns="http://www.w3.org/2000/svg"><path d="m117.34375 39.878906c-2.964844-.003906-5.683594 1.636719-7.070312 4.253906l-109.3125 206.519532c-.9531255 1.742187-1.183594 3.789062-.636719 5.699218l30.964843 111.714844h-12.265624c-4.554688.136719-8.207032 3.800782-8.335938 8.351563v87.710937c.164062 4.46875 3.863281 7.992188 8.335938 7.9375h196.636718c2.121094.015625 4.15625-.816406 5.664063-2.304687 1.503906-1.488281 2.355469-3.515625 2.363281-5.632813v-87.710937c.015625-4.492188-3.535156-8.1875-8.027344-8.351563h-10.046875l28.785157-111.859375c.496093-1.898437.253906-3.914062-.675782-5.644531l-109.308594-206.472656c-1.394531-2.609375-4.113281-4.230469-7.070312-4.210938zm0 170.882813c9.90625 0 17.9375 8.03125 17.9375 17.9375s-8.03125 17.9375-17.9375 17.9375-17.9375-8.03125-17.9375-17.9375c.011719-9.898438 8.035156-17.921875 17.9375-17.933594zm90.34375 245.304687h-181v-72h181zm-18.59375-88h-141.207031l-31.121094-112.917968 92.921875-175.054688v115.628906c-16.628906 4.050782-27.605469 19.886719-25.566406 36.875 2.039062 16.992188 16.453125 29.78125 33.566406 29.78125s31.527344-12.789062 33.566406-29.78125c2.039063-16.988281-8.9375-32.824218-25.566406-36.875v-115.628906l92.617188 175.128906zm0 0"/><path d="m373.34375 96.847656c0-53.488281-43.359375-96.847656-96.847656-96.847656-53.488282 0-96.847656 43.359375-96.847656 96.847656 0 53.488282 43.359374 96.847656 96.847656 96.847656 53.460937-.0625 96.785156-43.386718 96.847656-96.847656zm-177.695312 0c0-44.648437 36.195312-80.847656 80.847656-80.847656s80.847656 36.195312 80.847656 80.847656c0 44.648438-36.195312 80.847656-80.847656 80.847656-44.628906-.050781-80.796875-36.21875-80.847656-80.847656zm0 0"/><path d="m284.6875 131.066406v-26h26c4.417969 0 8-3.582031 8-8 0-4.417968-3.582031-8-8-8h-26v-26c0-4.417968-3.582031-8-8-8s-8 3.582032-8 8v26h-26c-4.417969 0-8 3.582032-8 8 0 4.417969 3.582031 8 8 8h26v26c0 4.417969 3.582031 8 8 8s8-3.582031 8-8zm0 0"/></svg>